<svg xmlns="http://www.w3.org/2000/svg" xmlns:xlink="http://www.w3.org/1999/xlink" width="250" height="36.526" viewBox="0 0 250 36.526">
  <defs>
    <clipPath id="clip-path">
      <rect id="Rectangle_3" data-name="Rectangle 3" width="250" height="36.526" fill="none"/>
    </clipPath>
  </defs>
  <g id="Group_6" data-name="Group 6" transform="translate(-60.042 430)">
    <g id="Group_5" data-name="Group 5" transform="translate(60.042 -430)" clip-path="url(#clip-path)">
      <path id="Path_29" data-name="Path 29" d="M26.989,30.365,25.771,36.3l-.152.507h-.254q-.1-.507-2.029-.507H0v-.253a3.01,3.01,0,0,0,2.105-.762,2.669,2.669,0,0,0,.837-2.08V3.884A2.67,2.67,0,0,0,2.105,1.8,3.01,3.01,0,0,0,0,1.043V.789H8.777v.254A3.009,3.009,0,0,0,6.671,1.8a2.671,2.671,0,0,0-.837,2.08V33.206a2.248,2.248,0,0,0,.66,1.877,3.852,3.852,0,0,0,2.283.507H21.865a3.527,3.527,0,0,0,2.815-1.649,15.124,15.124,0,0,0,2-3.576Z" transform="translate(0 -0.282)" fill="#424d5e"/>
      <path id="Path_30" data-name="Path 30" d="M93.88,35.26a3.805,3.805,0,0,0,2.258.787V36.3H87.462v-.254a3.552,3.552,0,0,0,1.547-.3,1.043,1.043,0,0,0,.634-1.015,2.132,2.132,0,0,0-.2-.862L84.621,22.3H68.844L64.532,32.7a3.3,3.3,0,0,0-.254,1.167,2.177,2.177,0,0,0,.584,1.573,2.105,2.105,0,0,0,1.6.609V36.3h-7.1v-.254a3.974,3.974,0,0,0,2.689-1.141,6.886,6.886,0,0,0,1.826-2.512L76.352,2.412A2.488,2.488,0,0,0,75.363,1.4a3.745,3.745,0,0,0-1.8-.355V.789h5.276L92.231,33.155a4.859,4.859,0,0,0,1.649,2.1M84.317,21.589,76.707,3.326,69.149,21.589Z" transform="translate(-21.208 -0.282)" fill="#424d5e"/>
      <path id="Path_31" data-name="Path 31" d="M164.985,36.3v.2q-.609.05-1.827.051A6.593,6.593,0,0,1,160.013,36a4.147,4.147,0,0,1-1.826-2.435,22.24,22.24,0,0,1-.659-4.413,34.766,34.766,0,0,0-.33-3.5,9.752,9.752,0,0,0-.837-2.74,6.129,6.129,0,0,0-2.613-2.967,11.927,11.927,0,0,0-4.692-1.193h-8.878V33.206a2.668,2.668,0,0,0,.837,2.08,3.007,3.007,0,0,0,2.1.761V36.3h-8.776v-.254a3.009,3.009,0,0,0,2.1-.761,2.667,2.667,0,0,0,.837-2.08V3.884a2.669,2.669,0,0,0-.837-2.08,3.009,3.009,0,0,0-2.1-.761V.789h12.429a33.211,33.211,0,0,1,6.57.558,10.814,10.814,0,0,1,4.489,1.928,7.6,7.6,0,0,1,2.942,6.443,7.763,7.763,0,0,1-2.435,5.935,11.122,11.122,0,0,1-6.493,2.891,12.017,12.017,0,0,1,5.022,1.928,8.194,8.194,0,0,1,2.562,2.79,10.984,10.984,0,0,1,1.192,3.247q.3,1.623.508,3.957l.3,2.435q.558,3.451,3.552,3.4M148.751,18.038a11.079,11.079,0,0,0,4.464-.964,8.03,8.03,0,0,0,3.2-2.587,9.12,9.12,0,0,0,1.42-5.175A7.1,7.1,0,0,0,155.8,3.833a8.263,8.263,0,0,0-3.678-1.8,24.1,24.1,0,0,0-5.453-.532H143.12a3.853,3.853,0,0,0-2.283.507,2.25,2.25,0,0,0-.659,1.877V18.038Z" transform="translate(-48.001 -0.282)" fill="#424d5e"/>
      <path id="Path_32" data-name="Path 32" d="M228.11,30.083l-1.37,6.442h-.254q-.1-.507-2.029-.507H201.121v-.253A3.01,3.01,0,0,0,203.226,35a2.669,2.669,0,0,0,.837-2.08V3.6a2.67,2.67,0,0,0-.837-2.08,3.01,3.01,0,0,0-2.105-.762V.507h21.814q1.927,0,2.029-.507h.254l1.37,6.443h-.3a15.187,15.187,0,0,0-2-3.577,3.53,3.53,0,0,0-2.816-1.649H209.9a3.857,3.857,0,0,0-2.283.507,2.248,2.248,0,0,0-.66,1.877V17.1h10.7a4.055,4.055,0,0,0,1.573-.228,1.3,1.3,0,0,0,.684-.609,5.417,5.417,0,0,0,.33-1.242q.1-.711.2-1.116h.355l1.724,7.1h-.355a10.93,10.93,0,0,1-.71-1.116,6.153,6.153,0,0,0-1.446-1.649,4,4,0,0,0-2.156-.431H206.955V32.924a2.248,2.248,0,0,0,.66,1.877,3.852,3.852,0,0,0,2.283.507h13.089a3.527,3.527,0,0,0,2.815-1.649,15.124,15.124,0,0,0,2-3.576Z" transform="translate(-71.861)" fill="#424d5e"/>
      <path id="Path_33" data-name="Path 33" d="M295.439.789v.254a3.221,3.221,0,0,0-2.257.862,3.206,3.206,0,0,0-.939,2.486V36.757L265.965,3.427V32.7a3.094,3.094,0,0,0,3.2,3.348V36.3h-7.1v-.254a3.093,3.093,0,0,0,3.2-3.348V4.391a3.211,3.211,0,0,0-.938-2.486,3.224,3.224,0,0,0-2.257-.862V.789h5.529l23.945,30.387V4.391a3.211,3.211,0,0,0-.938-2.486,3.225,3.225,0,0,0-2.258-.862V.789Z" transform="translate(-93.634 -0.282)" fill="#424d5e"/>
      <path id="Path_34" data-name="Path 34" d="M366.28,35.26a3.806,3.806,0,0,0,2.258.787V36.3h-8.675v-.254a3.552,3.552,0,0,0,1.547-.3,1.043,1.043,0,0,0,.634-1.015,2.133,2.133,0,0,0-.2-.862L357.021,22.3H341.244l-4.312,10.4a3.305,3.305,0,0,0-.254,1.167,2.177,2.177,0,0,0,.584,1.573,2.105,2.105,0,0,0,1.6.609V36.3h-7.1v-.254a3.973,3.973,0,0,0,2.689-1.141,6.887,6.887,0,0,0,1.826-2.512l12.48-29.981a2.488,2.488,0,0,0-.989-1.015,3.745,3.745,0,0,0-1.8-.355V.789h5.276l13.393,32.366a4.859,4.859,0,0,0,1.648,2.1m-9.563-13.671-7.61-18.263-7.559,18.263Z" transform="translate(-118.537 -0.282)" fill="#424d5e"/>
    </g>
  </g>
</svg>
